<?xml version="1.0" encoding="UTF-8"?><svg xmlns="http://www.w3.org/2000/svg" viewBox="0 0 404.52 129.07"><defs><style>.d{fill:#7ac943;stroke:#000;stroke-miterlimit:10;}</style></defs><g id="a"/><g id="b"><g id="c"><g><path d="M155.99,37.21v4.52c-7.83-.78-11.75-1.31-19.59-2.74v13.71c5.7,.12,8.55,.17,14.25,.25v4.64c-5.7,.16-8.55,.26-14.25,.5v13.98c7.83-1.62,11.75-2.23,19.59-3.11v4.43c-9.58,1.32-19.54,3.67-28.68,6.81V30.99c9.21,2.89,19.11,5.01,28.68,6.22Z"/><path d="M190.18,45.75v4.03c-7.12,.03-10.67,.02-17.79-.1-1-.02-1.79,.2-2.35,.66-.56,.46-.84,1.26-.84,2.42,0,2.09,1.06,3.13,3.19,3.12,4.89-.02,7.34-.03,12.23-.03,1.31,0,2.47,.19,3.48,.58,1,.39,1.85,.91,2.55,1.56,.7,.66,1.23,1.43,1.59,2.33s.55,1.87,.55,2.91c0,2.59-.72,4.58-2.14,5.98-1.43,1.4-3.55,2.08-6.37,2.09-8.67,.06-13,.27-21.67,1.24v-4.23c7.9-.67,11.86-.84,19.76-.93,.77,0,1.39-.28,1.85-.81,.46-.53,.7-1.36,.7-2.47s-.23-1.92-.7-2.43c-.46-.5-1.08-.75-1.85-.75-5.08,.03-7.61,.07-12.69,.21-1.39,.04-2.61-.12-3.65-.49-1.04-.37-1.9-.91-2.58-1.63s-1.19-1.59-1.54-2.6c-.35-1.01-.52-2.11-.52-3.29,0-2.53,.73-4.48,2.2-5.82,1.47-1.34,3.73-1.91,6.78-1.79,7.93,.29,11.89,.33,19.82,.26Z"/><path d="M219.73,44.71c2.43-.14,4.37,.42,5.79,1.75,1.43,1.33,2.14,3.57,2.14,6.67s-.67,5.31-2,6.6c-1.33,1.28-3.31,1.84-5.94,1.73-5.35-.22-8.03-.32-13.39-.46v2.38c0,1,.07,1.81,.2,2.43,.14,.62,.38,1.1,.72,1.44,.35,.34,.82,.58,1.42,.71,.6,.14,1.34,.23,2.23,.29,5.42,.37,8.14,.59,13.56,1.1v4.55c-7.05-.86-10.57-1.23-17.62-1.77-1.7-.13-3.15-.38-4.35-.75-1.2-.37-2.18-.91-2.96-1.61-.77-.7-1.34-1.59-1.71-2.69-.37-1.09-.55-2.43-.55-4.02,0-3.59,0-5.38,0-8.97,0-1.56,.18-2.88,.55-3.97,.37-1.08,.94-1.96,1.71-2.64,.77-.68,1.76-1.19,2.96-1.53,1.2-.34,2.65-.54,4.35-.61,5.15-.2,7.72-.33,12.86-.63Zm-13.39,12.45c3.89,.04,5.84,.07,9.73,.13,.62,0,1.15-.03,1.59-.11,.44-.08,.8-.27,1.07-.56,.27-.29,.46-.71,.58-1.26,.12-.55,.17-1.29,.17-2.21s-.05-1.6-.14-2.12c-.1-.52-.27-.91-.52-1.17-.25-.26-.6-.42-1.04-.48-.44-.06-1.01-.08-1.71-.06-2.48,.07-3.72,.1-6.2,.16-.7,.02-1.28,.1-1.74,.25-.46,.15-.83,.4-1.1,.73-.27,.34-.46,.8-.55,1.37-.1,.57-.14,1.29-.14,2.15v3.17Z"/><path d="M262.84,29.25c0,16.81,0,33.62,0,50.44-8.11-1.35-12.17-2.04-20.28-3.28-1.7-.26-3.16-.69-4.38-1.29-1.22-.59-2.21-1.38-2.98-2.37-.77-.98-1.34-2.18-1.71-3.6-.37-1.42-.55-3.09-.55-5.04v-9.38c0-1.94,.18-3.61,.55-5,.37-1.39,.94-2.55,1.71-3.49,.77-.93,1.77-1.65,2.98-2.16,1.22-.51,2.67-.83,4.38-.97,4.52-.36,6.78-.55,11.3-.93,0-4.58,0-6.88,0-11.46,3.59-.59,5.39-.89,8.98-1.49Zm-21.09,32.63c0,2.07,.1,3.72,.29,4.96,.19,1.24,.53,2.22,1.01,2.93,.48,.71,1.15,1.22,2,1.51,.85,.29,1.93,.52,3.25,.68,2.22,.27,3.34,.41,5.56,.69,0-9.91,0-14.86,0-24.77-3.38,.15-5.08,.23-8.46,.38-.66,.03-1.22,.13-1.68,.31s-.84,.49-1.13,.93c-.29,.44-.5,1.03-.64,1.75-.14,.73-.2,1.66-.2,2.79v7.85Z"/><path d="M276.98,40.21v28.25c0,1.48,.06,2.68,.17,3.61,.12,.93,.3,1.67,.55,2.22,.25,.55,.61,.96,1.07,1.21,.46,.25,1.04,.43,1.74,.51,3.59,.44,5.39,.66,8.98,1.08,0-12.64,0-25.28,0-37.92,3.59-.28,5.39-.42,8.98-.68,0,15.61,0,31.22,0,46.84-8.34-1.16-12.52-1.83-20.86-3.2-1.74-.28-3.21-.73-4.4-1.33-1.2-.6-2.18-1.43-2.96-2.48-.77-1.05-1.33-2.39-1.68-4-.35-1.61-.52-3.59-.52-5.93v-27.42c3.57-.31,5.35-.46,8.92-.76Z"/><path d="M312.73,24.67c0,18.27,0,36.54,0,54.81,8.3,.7,12.45,.98,20.74,1.28v8.05c-9.9-.45-19.9-1.42-29.73-2.76,0-20.13,0-40.26,0-60.4,3.59-.43,5.39-.62,8.98-.98Z"/><path d="M359.21,75.02c-4.13,.15-6.19,.19-10.31,.22-.56,5.54-.83,8.32-1.39,13.86-3.62,.02-5.42,0-9.04-.11,3.24-22.04,6.46-44.09,9.68-66.13,4.73,.04,7.09,.11,11.82,.39,3.19,21.53,6.42,43.05,9.74,64.56-3.59,.41-5.39,.57-8.98,.81-.6-5.42-.9-8.15-1.51-13.61Zm-9.45-8.06c3.43-.02,5.15-.04,8.58-.11-1.28-11.87-2.56-23.74-3.82-35.6-.37,0-.56-.01-.93-.02-1.28,11.91-2.55,23.82-3.82,35.74Z"/><path d="M383.31,25.93c4.42,14.53,9.04,28.93,14.14,43.24,0-13.39,0-26.78,0-40.17,2.83,.73,4.24,1.13,7.07,1.99,0,16.4,0,32.81,0,49.21-4.06,1.36-6.08,1.96-10.14,3.03-4.78-12.41-8.91-25.04-12.98-37.7,0,13.53,0,27.05,0,40.58-2.8,.51-4.21,.73-7.01,1.12,0-20.88,0-41.76,0-62.64,3.57,.46,5.35,.72,8.92,1.35Z"/></g><g><polygon class="d" points="14.33 55.85 14.33 63.83 42.16 80.02 42.14 96.01 14.32 79.76 14.32 87.72 56.12 112.19 56.09 128.2 .5 95.51 .5 31.9 56.2 64.1 56.18 80.14 14.33 55.85"/><polygon class="d" points="107.87 82.6 107.87 98.61 59.99 126.04 59.99 62.2 75.92 53.01 75.92 100.94 107.87 82.6"/><path class="d" d="M52.88,1.09L7.24,27.36c-1.72,.99-1.27,3.23,.9,4.47l44.21,25.29c2.11,1.21,5.9,1.43,7.58,.45l44.59-26.01c1.66-.97,1.27-3.15-.79-4.37L60.53,1.64c-2.12-1.25-5.94-1.53-7.65-.55Zm43.65,27.04l.27,1.46-7.79,4.54-13.9-8.15-2.24,1.3,13.92,8.14-2.23,1.3-13.93-8.14-2.25,1.3,13.94,8.13-2.23,1.3-13.96-8.13-2.25,1.3,13.97,8.13-2.24,1.3-13.99-8.12-2.25,1.31,14,8.12-2.24,1.3-14.01-8.12-2.25,1.31,14.03,8.11-2.24,1.3-14.04-8.11-2.26,1.31,14.06,8.11-7.86,4.58-2.53-.15-9.88-5.66,.42-1.06-7.8-4.48-1.84,.25-7.85-4.5-.29-1.48,8.53-4.93-5.43-3.46,4.27-2.46-5.15-3.64,13.66-7.87,6.25,2.99,4.25-2.45,5.93,3.15,8.46-4.89,2.53,.18,7.7,4.54-.42,1.06,7.66,4.51,1.81-.24,9.69,5.71Z"/></g></g></g></svg>