<?xml version="1.0" encoding="UTF-8"?><svg xmlns="http://www.w3.org/2000/svg" viewBox="0 0 453.73 129.07"><defs><style>.d{font-family:Unispace-Bold, Unispace;font-size:69.62px;}.e{fill:#7ac943;stroke:#000;stroke-miterlimit:10;}</style></defs><g id="a"/><g id="b"><g id="c"><text class="d" transform="translate(129.94 89.08) scale(.95 1)"><tspan x="0" y="0">EseduLAN</tspan></text><g><polygon class="e" points="14.33 55.85 14.33 63.83 42.16 80.02 42.14 96.01 14.32 79.76 14.32 87.72 56.12 112.19 56.09 128.2 .5 95.51 .5 31.9 56.2 64.1 56.18 80.14 14.33 55.85"/><polygon class="e" points="107.87 82.6 107.87 98.61 59.99 126.04 59.99 62.2 75.92 53.01 75.92 100.94 107.87 82.6"/><path class="e" d="M52.88,1.09L7.24,27.36c-1.72,.99-1.27,3.23,.9,4.47l44.21,25.29c2.11,1.21,5.9,1.43,7.58,.45l44.59-26.01c1.66-.97,1.27-3.15-.79-4.37L60.53,1.64c-2.12-1.25-5.94-1.53-7.65-.55Zm43.65,27.04l.27,1.46-7.79,4.54-13.9-8.15-2.24,1.3,13.92,8.14-2.23,1.3-13.93-8.14-2.25,1.3,13.94,8.13-2.23,1.3-13.96-8.13-2.25,1.3,13.97,8.13-2.24,1.3-13.99-8.12-2.25,1.31,14,8.12-2.24,1.3-14.01-8.12-2.25,1.31,14.03,8.11-2.24,1.3-14.04-8.11-2.26,1.31,14.06,8.11-7.86,4.58-2.53-.15-9.88-5.66,.42-1.06-7.8-4.48-1.84,.25-7.85-4.5-.29-1.48,8.53-4.93-5.43-3.46,4.27-2.46-5.15-3.64,13.66-7.87,6.25,2.99,4.25-2.45,5.93,3.15,8.46-4.89,2.53,.18,7.7,4.54-.42,1.06,7.66,4.51,1.81-.24,9.69,5.71Z"/></g></g></g></svg>